<svg width="100" height="100" viewBox="0 0 100 100" fill="none" xmlns="http://www.w3.org/2000/svg">
<g clip-path="url(#clip0_70_160)">
<path d="M76.5625 0H23.4375C10.4933 0 0 10.4933 0 23.4375V76.5625C0 89.5067 10.4933 100 23.4375 100H76.5625C89.5067 100 100 89.5067 100 76.5625V23.4375C100 10.4933 89.5067 0 76.5625 0Z" fill="#242938"/>
<path d="M89.0625 71.4598C87.9253 71.8904 86.6698 71.8896 85.5332 71.4574C84.3966 71.0252 83.4578 70.1915 82.8941 69.1141C79.3539 63.8145 75.4445 58.7539 71.6871 53.5848L70.0578 51.4129C65.5836 57.4074 61.1094 63.1629 57.0262 69.1359C56.4943 70.1657 55.6063 70.9671 54.5274 71.3907C53.4486 71.8142 52.2525 71.8312 51.1621 71.4383L67.9512 48.9152L52.3348 28.5637C53.4589 28.1577 54.6887 28.1521 55.8164 28.5478C56.9442 28.9435 57.9009 29.7163 58.525 30.7356C62.152 36.0356 66.1703 41.0961 70.1664 46.4609C74.1848 41.1395 78.1594 36.057 81.8734 30.8008C82.4082 29.7877 83.2968 29.0066 84.3701 28.6061C85.4434 28.2057 86.6264 28.2138 87.6941 28.6289L81.6344 36.6652C78.9195 40.2488 76.248 43.8543 73.4246 47.3512C73.1969 47.5548 73.0148 47.8042 72.8901 48.083C72.7654 48.3619 72.701 48.6639 72.701 48.9693C72.701 49.2748 72.7654 49.5768 72.8901 49.8556C73.0148 50.1345 73.1969 50.3839 73.4246 50.5875C78.6156 57.4727 83.7629 64.3793 89.0625 71.4598ZM10.9375 48.6328C11.3937 46.4609 11.6758 44.0934 12.3059 41.8781C16.0633 28.5207 31.3754 22.9602 41.9094 31.2356C48.0777 36.0793 49.6199 42.9426 49.316 50.6746H14.5648C14 64.4883 23.9691 72.8285 36.7184 68.5715C38.7865 67.8316 40.6378 66.5884 42.1053 64.9541C43.5727 63.3197 44.6101 61.3457 45.1238 59.2102C45.7973 57.0383 46.8832 56.6691 48.9465 57.2988C48.6067 59.943 47.6719 62.4757 46.2123 64.7066C44.7527 66.9374 42.8063 68.8083 40.5195 70.1785C36.7413 72.2448 32.4064 73.0635 28.1347 72.5174C23.8631 71.9712 19.8736 70.0883 16.7367 67.1379C13.6333 63.6485 11.7569 59.2396 11.3937 54.584C11.3937 53.8457 11.1113 53.107 10.9594 52.4121C10.945 51.1524 10.9377 49.8926 10.9375 48.6328ZM14.6082 47.6988H46.0363C45.8406 37.6863 39.5203 30.584 31.0934 30.5191C21.7105 30.3887 14.9992 37.3387 14.5863 47.6555L14.6082 47.6988Z" fill="white"/>
</g>
<defs>
<clipPath id="clip0_70_160">
<rect width="100" height="100" fill="white"/>
</clipPath>
</defs>
</svg>
