<svg width="100" height="100" viewBox="0 0 100 100" fill="none" xmlns="http://www.w3.org/2000/svg">
<g clip-path="url(#clip0_10_73)">
<path d="M26.0156 81.9688C22.8906 81.9688 20.3125 82.3594 18.4375 83.0625C17.7344 85.5625 17.4219 88.2188 17.4219 91.1875C17.4219 96.6562 18.3594 100.016 24.6094 100.016C27.5 100.016 29.9219 99.1562 31.875 98.2188L31.25 95.4062C29.375 96.1094 26.9531 96.7344 24.8438 96.7344C22.1094 96.7344 21.25 96.0312 21.0938 91.3438H32.8125V89.625C32.8125 84.8594 31.0938 81.9688 26.0156 81.9688ZM21.0938 89.1562C21.1719 86.8125 21.3281 86.1875 21.4844 85.4844C22.9688 85.1719 24.6875 85.1719 25.8594 85.1719C28.4375 85.1719 28.9062 86.8125 28.9062 89.1562H21.0938ZM9.29688 81.9688C7.1875 81.9688 5.46875 82.5156 3.125 83.1406V75.0938H0V99.3125H3.125V86.3438C5.46875 85.5625 7.03125 85.1719 8.59375 85.1719C9.375 85.1719 10.1562 85.5625 10.1562 86.5V99.7031L10.4688 99.3906H14.0625V87.0469C14.0625 84.0781 12.6562 81.9688 9.29688 81.9688ZM93.75 82.125V95.7188C91.4062 96.5 89.375 96.8906 87.7344 96.8906C86.9531 96.8906 85.9375 96.5 85.9375 95.5625V82.125H82.8125V95.1719C82.8125 98.0625 83.8281 100.094 87.1875 100.094C89.2969 100.094 92.9688 99.7812 96.875 97.3594V82.125H93.75ZM79.5312 82.125H75.3125C74.2969 84.4688 72.8125 87.5938 70.9375 89.1562H69.5312V75.0938H65.625V99.3125H69.5312V91.5H71.1719C73.3594 93.8438 74.7656 96.9688 75.8594 99.3125H80.2344C78.5938 96.1875 76.7188 92.75 74.2188 89.625C76.25 87.5156 78.125 85.25 79.5312 82.125ZM35.9375 99.3125H39.0625V86.3438C40.625 85.7188 42.9688 85.4844 44.5312 85.4062V82.2812C42.1875 82.4375 39.0625 82.9844 35.9375 84.7031V99.3125ZM54.2188 81.9688C49.4531 81.9688 46.1719 84.4688 46.1719 91.1094C46.1719 97.3594 48.6719 100.094 54.2188 100.094C58.9844 100.094 62.2656 97.5938 62.2656 90.9531C62.2656 84.7031 59.7656 81.9688 54.2188 81.9688ZM54.2188 96.9688C51.0938 96.9688 49.7656 95.875 49.7656 91.1094C49.7656 86.7344 51.3281 85.0938 54.2188 85.0938C57.3438 85.0938 58.6719 86.1875 58.6719 90.9531C58.5938 95.3281 57.0312 96.9688 54.2188 96.9688ZM75.7812 10.4844C75.7812 6.89063 72.8906 4 69.2969 4H27.5781C23.9844 4 21.0938 6.89063 21.0938 10.4844V65.4844C21.0938 69.0781 23.9844 71.9688 27.5781 71.9688H69.2969C72.8906 71.9688 75.7812 69.0781 75.7812 65.4844V10.4844ZM23.4375 10.875C23.4375 8.29688 25.3906 6.34375 27.8906 6.34375H68.9062C71.4844 6.34375 73.4375 8.375 73.4375 10.875V65.0937C73.4375 67.6719 71.4844 69.7031 68.9844 69.7031H27.8906C25.3125 69.7031 23.4375 67.6719 23.4375 65.0937V10.875ZM65.5469 13.375H57.1875C57.1875 13.375 54.5312 19.625 51.6406 22.75H59.7656C64.1406 17.2812 65.5469 13.375 65.5469 13.375ZM33.5938 62.5156L41.25 54.7812L33.5938 47.125V62.5156ZM55.4688 35.5625V62.5156L55.3906 62.5938H62.5V35.6406C62.5 20.875 41.4062 29.2344 41.4062 29.2344V13.2188L33.75 13.2969C33.75 13.2969 33.75 38.2969 33.8281 38.2188C57.1875 29.1562 55.4688 35.5625 55.4688 35.5625Z" fill="#6762A6"/>
</g>
<defs>
<clipPath id="clip0_10_73">
<rect width="100" height="100" fill="white"/>
</clipPath>
</defs>
</svg>
