<svg width="100" height="100" viewBox="0 0 100 100" fill="none" xmlns="http://www.w3.org/2000/svg">
<g clip-path="url(#clip0_10_47)">
<path d="M76.5625 0H23.4375C10.4933 0 0 10.4933 0 23.4375V76.5625C0 89.5067 10.4933 100 23.4375 100H76.5625C89.5067 100 100 89.5067 100 76.5625V23.4375C100 10.4933 89.5067 0 76.5625 0Z" fill="#F0DB4F"/>
<path d="M26.2938 83.5672L33.9461 78.9359C35.4227 81.5535 36.7656 83.7683 39.9871 83.7683C43.075 83.7683 45.0219 82.5605 45.0219 77.8621V45.9098H54.4195V77.9949C54.4195 87.7281 48.7141 92.1586 40.3899 92.1586C32.8723 92.1586 28.5086 88.2652 26.2934 83.5664M59.5238 82.5601L67.1754 78.1301C69.1898 81.4195 71.8078 83.8359 76.4391 83.8359C80.3332 83.8359 82.816 81.889 82.816 79.2039C82.816 75.982 80.2652 74.8406 75.9692 72.9617L73.6203 71.9543C66.8402 69.0683 62.3426 65.4433 62.3426 57.791C62.3426 50.7426 67.7129 45.3723 76.1039 45.3723C82.0781 45.3723 86.3742 47.4535 89.4617 52.8906L82.1449 57.5894C80.5336 54.7031 78.7891 53.5621 76.1039 53.5621C73.3516 53.5621 71.6063 55.3074 71.6063 57.5894C71.6063 60.4086 73.3516 61.55 77.3789 63.2957L79.7281 64.3023C87.716 67.7262 92.2137 71.216 92.2137 79.0695C92.2137 87.5281 85.5684 92.1594 76.6406 92.1594C67.9145 92.1594 62.2758 87.9976 59.5238 82.5601Z" fill="#323330"/>
</g>
<defs>
<clipPath id="clip0_10_47">
<rect width="100" height="100" fill="white"/>
</clipPath>
</defs>
</svg>
