<svg width="100" height="100" viewBox="0 0 100 100" fill="none" xmlns="http://www.w3.org/2000/svg">
<path fill-rule="evenodd" clip-rule="evenodd" d="M68.1711 78.2336C68.3031 77.9797 68.4297 77.7555 68.5375 77.5234C68.6055 77.375 68.7101 77.3453 68.8578 77.3492C69.743 77.3742 70.6281 77.4015 71.514 77.4101C72.2664 77.4179 73.0203 77.4039 73.7734 77.3953C74.6219 77.3851 75.4703 77.3406 76.318 77.3648C77.4469 77.3976 78.5469 77.6187 79.568 78.1211C80.7875 78.7219 81.7101 79.6367 82.339 80.8422C82.7344 81.6065 82.9812 82.4389 83.0664 83.2953C83.2008 84.5515 83.1125 85.7789 82.714 86.9804C82.2203 88.4695 81.2828 89.6094 79.9805 90.4633C78.9781 91.1203 77.8789 91.5086 76.7008 91.7304C75.4539 91.9656 74.2031 91.8898 72.9523 91.8937C71.5805 91.8992 70.2094 91.8695 68.8375 91.8539C68.5976 91.8515 68.5633 91.8062 68.6266 91.5773L68.6851 91.3664C68.8187 90.9461 68.8906 90.9273 69.3172 90.857C69.6195 90.8094 69.9087 90.6995 70.1664 90.5344C70.3101 90.439 70.3695 90.1906 70.4258 89.9992C70.4742 89.832 70.4765 89.6484 70.4781 89.4719C70.4976 86.7961 70.518 84.1211 70.5289 81.4469C70.5319 80.7705 70.515 80.0941 70.4781 79.4187C70.4515 78.9461 70.1992 78.6226 69.6367 78.5109C69.1992 78.4242 68.7586 78.357 68.3187 78.2797L68.1711 78.2336ZM80.7305 84.7125C80.6711 84.1797 80.6422 83.6422 80.5469 83.1172C80.3187 81.857 79.7672 80.7594 78.7984 79.8992C77.232 78.5094 75.3461 78.2953 73.3695 78.4609C72.9195 78.4984 72.8226 78.6523 72.8156 79.1148C72.8047 79.7711 72.7937 80.4273 72.793 81.0836C72.7898 83.1648 72.7898 85.2461 72.793 87.3273C72.7937 87.9195 72.8 88.5117 72.8172 89.1023C72.8359 89.707 73.0555 90.2187 73.6476 90.4531C74.5812 90.8226 75.5633 90.8664 76.543 90.7156C78.1078 90.4758 79.2023 89.564 79.9367 88.1976C80.518 87.1133 80.682 85.9297 80.7305 84.7125ZM84.5344 91.7992C84.5156 91.475 84.6484 91.207 84.8125 90.9609C84.857 90.8945 85.0101 90.8976 85.1156 90.8765L86.0109 90.6992C86.3273 90.632 86.4937 90.4195 86.5383 90.1094C86.568 89.9047 86.5961 89.6976 86.5984 89.4906C86.6196 87.8524 86.635 86.2141 86.6445 84.5758C86.6523 82.9351 86.6461 81.2945 86.6461 79.6539L86.639 79.3406C86.607 78.8133 86.3523 78.5398 85.8289 78.4625L84.6937 78.2898C84.5539 78.2711 84.5031 78.2039 84.5539 78.0797C84.6414 77.868 84.725 77.6484 84.8484 77.4578C84.8945 77.3875 85.05 77.3601 85.1547 77.3625C85.6969 77.3703 86.239 77.4109 86.7812 77.4101L91.5008 77.382C92.4101 77.3812 93.2883 77.5398 94.1039 77.975C95.0016 78.4531 95.5039 79.1929 95.6476 80.2008C95.7976 81.2594 95.4765 82.1515 94.7031 82.8601C94.3851 83.1523 93.9734 83.343 93.6047 83.5805L93.4844 83.6555C93.8266 83.7812 94.1523 83.8898 94.4695 84.0195C95.3976 84.4 96.1359 84.9945 96.5265 85.9437C96.8351 86.693 96.8351 87.4742 96.6523 88.2508C96.368 89.4664 95.5672 90.275 94.5258 90.8867C93.5484 91.4609 92.4906 91.7953 91.364 91.8515C90.325 91.9039 89.2812 91.8844 88.2398 91.8961L87.6367 91.8992C86.633 91.8761 85.6294 91.8511 84.6258 91.8242L84.5344 91.7992ZM88.8601 87.0422H88.8703C88.8703 87.5562 88.8633 88.0703 88.8726 88.5844C88.8789 88.9172 88.8672 89.2594 88.9391 89.5797C89.0469 90.0586 89.2656 90.4906 89.8031 90.6281C90.5217 90.8169 91.2723 90.85 92.0047 90.725C92.9242 90.5648 93.6578 90.1039 94.0601 89.2281C94.3586 88.5773 94.4031 87.8875 94.3008 87.1828C94.1648 86.2547 93.6719 85.5812 92.8523 85.1398C92.3148 84.85 91.7414 84.6726 91.1305 84.6492C90.4461 84.6234 89.7609 84.6219 89.0765 84.6008C88.8844 84.5953 88.8578 84.693 88.8586 84.8508C88.8625 85.5805 88.8601 86.3109 88.8601 87.0422ZM90.3172 83.5461C90.6914 83.5273 91.1148 83.5219 91.5359 83.4797C92.3422 83.3992 92.9101 82.9937 93.2062 82.2226C93.357 81.8312 93.3508 81.4281 93.3547 81.0211C93.3664 79.9609 92.7476 79.0922 91.7406 78.7328C90.9633 78.4554 90.1617 78.4508 89.3555 78.4726C89.0289 78.4812 88.8828 78.6242 88.8781 78.9531L88.8297 83.2414C88.8273 83.4117 88.9008 83.4851 89.0664 83.4906L90.3172 83.5461Z" fill="white"/>
<path fill-rule="evenodd" clip-rule="evenodd" d="M8.23672 90.975L8.17969 91.7125C7.64844 91.7125 7.1586 91.7086 6.66875 91.7141C5.7461 91.7234 4.82344 91.7383 3.9 91.7516L3.81094 91.757C3.67891 91.7414 3.43907 91.7414 3.43282 91.7023C3.39375 91.4828 3.40625 91.2523 3.41641 91.025C3.41719 90.9992 3.50704 90.9664 3.55938 90.9539L4.27735 90.7938C4.725 90.6773 4.88282 90.4844 4.90391 90.0219C4.92813 89.5008 4.95235 88.9789 4.95469 88.4578C4.96172 87.175 4.95391 85.8937 4.95938 84.6109C4.96016 84.3109 4.85625 84.0875 4.57657 83.9656C4.24422 83.8181 3.90954 83.6759 3.57266 83.5391C3.41329 83.475 3.20625 83.4398 3.225 83.2258C3.24375 83.0078 3.44454 82.9508 3.6336 82.9078C4.41641 82.7289 5.2 82.5547 5.98047 82.3641C6.23204 82.3023 6.47266 82.1984 6.77344 82.0938C6.78907 82.2563 6.81797 82.4109 6.81485 82.5656L6.76875 83.3008C6.76797 83.3836 6.81094 83.4945 6.87266 83.5406C6.91016 83.5695 7.03594 83.5172 7.09844 83.4687C7.76563 82.9609 8.47188 82.5227 9.27735 82.2672C10.525 81.8711 11.5961 82.2383 12.3461 83.3141C12.6102 83.693 12.6109 83.693 12.9773 83.4281C13.6063 82.9711 14.2641 82.568 15 82.3023C16.6156 81.7187 18.168 82.4594 18.7297 84.0867C18.9344 84.6773 19.0125 85.2875 19.0109 85.9109L18.9961 90.05C18.9953 90.3914 19.1086 90.5859 19.4336 90.6922C19.7984 90.8117 20.1766 90.8938 20.5875 91.0016L20.4922 91.7133C20.025 91.7133 19.5953 91.7102 19.1656 91.7141C18.1156 91.7234 17.0656 91.7289 16.0164 91.7531C15.8336 91.7578 15.7859 91.7125 15.7766 91.5414C15.7461 90.9937 15.7414 90.9945 16.257 90.8711L16.4305 90.8266C16.9344 90.6891 17.1023 90.5344 17.1063 90.0234C17.118 88.5563 17.1484 87.0852 17.0742 85.6211C16.9969 84.1023 15.7914 83.2937 14.3195 83.6828C13.8445 83.8129 13.3971 84.0284 12.9992 84.3187C12.8625 84.4164 12.8367 84.5289 12.8477 84.7C12.8891 85.3469 12.9148 85.9945 12.9203 86.6422C12.9297 87.7758 12.9156 88.9094 12.9203 90.0437C12.9219 90.5031 13.0789 90.6789 13.5328 90.7852L14.207 90.9406L14.332 90.9688C14.3414 91.1844 14.35 91.4 14.3398 91.6156C14.3336 91.7508 14.2289 91.7625 14.1117 91.7602C13.4563 91.7438 12.8 91.7219 12.1445 91.7234C11.3469 91.725 10.55 91.7477 9.75313 91.7617H9.56563C9.56563 91.5328 9.55469 91.3141 9.57344 91.0961C9.57735 91.0437 9.66954 90.9703 9.73282 90.9539L10.5188 90.7875C10.8523 90.7055 11.0117 90.5344 11.0305 90.1953C11.1195 88.625 11.1836 87.0539 11.0359 85.4844C11 85.1744 10.9139 84.8723 10.7813 84.5898C10.3789 83.7008 9.47344 83.3297 8.42891 83.5969C7.93282 83.7234 7.48516 83.9508 7.06172 84.2375C6.96938 84.2943 6.89354 84.3744 6.84173 84.4696C6.78992 84.5649 6.76395 84.6721 6.76641 84.7805C6.76641 86.3469 6.77188 87.9133 6.77657 89.4789L6.78516 90.0828C6.79454 90.5039 6.97344 90.7258 7.39141 90.8164C7.66016 90.8773 7.93203 90.9187 8.23672 90.975Z" fill="white"/>
<path fill-rule="evenodd" clip-rule="evenodd" d="M55.4695 82.2539C55.5906 82.843 55.5883 83.3727 55.1555 83.7742C54.7258 84.1734 54.182 84.0391 53.6516 83.95C53.7008 84.2297 53.7555 84.4672 53.782 84.7078C53.975 86.4961 53.2055 87.8234 51.5469 88.582C50.9203 88.868 50.2555 88.9742 49.5766 89.0289C49.2391 89.0555 48.9437 89.3133 48.9117 89.5906C48.8789 89.8719 49.0555 90.1609 49.4086 90.2453C49.825 90.3445 50.2594 90.3726 50.6867 90.4219C51.6039 90.5266 52.5312 90.5742 53.4375 90.7383C54.8078 90.9851 55.5726 92.1812 55.3312 93.5578C55.1164 94.7828 54.407 95.6742 53.418 96.3578C51.7516 97.5125 49.9234 97.85 47.9766 97.2609C46.8633 96.9234 46.0781 96.1914 45.807 95.007C45.6711 94.4141 45.8156 93.8773 46.2617 93.475C46.7922 92.9984 47.3695 92.5734 47.925 92.1234L48.1047 91.943L47.8984 91.7984C47.332 91.5297 46.8789 91.1617 46.7031 90.5227C46.643 90.3062 46.7055 90.1641 46.8891 90.0531C47.2016 89.8648 47.5125 89.6734 47.8211 89.4789C47.9664 89.3883 48.1101 89.2945 48.2453 89.1898C48.4297 89.0492 48.4133 88.9445 48.193 88.8633C47.6805 88.6742 47.225 88.4 46.8719 87.9781C46.282 87.2742 46.1148 86.4359 46.1633 85.5508C46.2391 84.168 46.9898 83.257 48.2101 82.6711C49.6609 81.975 51.1164 81.9312 52.5953 82.5656C53.1422 82.8 53.7187 82.85 54.3055 82.8094C54.7437 82.7781 55.1266 82.6125 55.4695 82.2539ZM50.1234 92.1609C49.0344 92.1516 48.693 92.2859 48.0539 92.9367C47.3383 93.6664 47.3422 94.6781 48.0562 95.4109C48.5984 95.9664 49.275 96.2266 50.0273 96.3047C50.9062 96.3953 51.7719 96.3586 52.5703 95.9187C53.4219 95.4477 53.8453 94.5727 53.6539 93.6914C53.4953 92.9641 52.9594 92.6312 52.307 92.4398C51.5648 92.2226 50.7976 92.1812 50.1234 92.1609ZM47.9844 85.2016C48.0242 85.5039 48.0406 85.8102 48.1078 86.1062C48.282 86.8734 48.6156 87.5477 49.3789 87.8891C50.275 88.2914 51.4195 88.1187 51.8117 86.8609C52.0796 86.0239 52.0484 85.1197 51.7234 84.3031C51.5857 83.9298 51.3378 83.6073 51.0125 83.3781C50.2344 82.8351 48.8305 82.7633 48.2586 83.9633C48.0726 84.3531 48 84.768 47.9844 85.2016Z" fill="white"/>
<path fill-rule="evenodd" clip-rule="evenodd" d="M36.9922 82.0609C37.0211 82.1945 37.0789 82.3461 37.0805 82.4984C37.0828 82.7883 37.0516 83.0781 37.0352 83.368V83.6195L37.2805 83.432C37.9523 82.8789 38.6742 82.4078 39.5148 82.1539C41.032 81.6969 42.5477 82.5273 43.0422 84.0726C43.2297 84.6601 43.3039 85.2641 43.3109 85.8781C43.3266 87.2422 43.3359 88.6062 43.35 89.9703C43.3547 90.4601 43.4109 90.5476 43.8742 90.6891C44.1379 90.7678 44.4068 90.8275 44.6789 90.868C44.8281 90.8914 44.8922 90.95 44.8844 91.0961L44.8859 91.2305C44.8805 91.7953 44.8414 91.8211 44.2938 91.8195C42.9828 91.8172 41.6727 91.825 40.3617 91.8359C39.9711 91.8391 39.9703 91.8508 39.9313 91.4648L39.9234 91.243C39.9477 90.9101 39.9555 90.9133 40.2828 90.8648C40.5031 90.832 40.7219 90.7812 40.9367 90.725C41.1578 90.668 41.2641 90.5047 41.2938 90.2859C41.3086 90.175 41.3281 90.0641 41.3273 89.9531C41.3086 88.4625 41.3328 86.9703 41.2516 85.482C41.1859 84.2781 40.2672 83.5609 39.0586 83.643C38.476 83.6833 37.916 83.8842 37.4406 84.2234C37.118 84.4492 37.0531 84.775 37.0547 85.1258C37.0609 86.5195 37.0742 87.9133 37.0891 89.3078C37.0922 89.6133 37.1008 89.9187 37.1297 90.2219C37.1602 90.5531 37.2766 90.6867 37.6016 90.7586C37.9125 90.8273 38.2297 90.8672 38.5617 90.9226L38.5898 91.1789C38.6008 91.7766 38.5383 91.8211 37.9578 91.8187C36.6023 91.8133 35.2469 91.8219 33.8922 91.8367C33.6789 91.8398 33.5883 91.7726 33.5938 91.5648L33.5906 91.4758C33.5555 90.9375 33.5711 90.9172 34.0805 90.8297L34.3211 90.7812C34.8727 90.657 35.0141 90.5101 35.0219 89.95C35.0477 88.1758 35.057 86.4023 35.075 84.6281C35.0773 84.3734 34.9813 84.1758 34.7438 84.0703C34.4104 83.9243 34.0753 83.7826 33.7383 83.6453C33.5523 83.5687 33.3398 83.5203 33.3328 83.2633C33.3281 83.082 33.5219 82.9219 33.7867 82.868C34.3188 82.7601 34.8555 82.6703 35.3813 82.5383C35.9047 82.4078 36.4188 82.2328 36.9922 82.0609Z" fill="white"/>
<path fill-rule="evenodd" clip-rule="evenodd" d="M66.3008 86.6953C66.2758 88.3523 65.8453 89.6922 64.6734 90.6976C63.1891 91.9734 60.8734 92.407 58.9805 91.4531C58.1727 91.0461 57.5789 90.4219 57.1922 89.6117C56.5992 88.3656 56.4508 87.0555 56.7602 85.7133C57.0664 84.3859 57.8703 83.4242 59.0734 82.8016C60.3109 82.1617 61.6141 81.9117 62.9883 82.2476C64.7266 82.6719 65.9758 84.0891 66.2242 85.8937C66.2688 86.2101 66.2859 86.5305 66.3008 86.6953ZM64.2875 87.593L64.2203 87.5851C64.2203 87.4289 64.2289 87.2726 64.2188 87.1164C64.1617 86.143 63.943 85.2156 63.3789 84.4008C62.8438 83.6289 62.1148 83.1734 61.1664 83.107C60.1047 83.032 59.2125 83.6258 58.8992 84.7101C58.4289 86.3383 58.5883 87.925 59.4148 89.4164C59.775 90.0664 60.3086 90.5461 61.0234 90.7984C62.4242 91.2914 63.6664 90.6531 64.0313 89.2187C64.1656 88.689 64.2047 88.1351 64.2875 87.593Z" fill="white"/>
<path fill-rule="evenodd" clip-rule="evenodd" d="M31.8899 86.8234C31.8609 88.0125 31.5805 89.1117 30.8461 90.0672C30.0594 91.0906 28.9781 91.6375 27.7484 91.868C26.2945 92.1398 24.9289 91.893 23.7609 90.9172C23.2063 90.4531 22.8274 89.8586 22.5774 89.182C22.1672 88.0726 22.0649 86.9359 22.3172 85.7773C22.5867 84.5375 23.2867 83.5898 24.3719 82.9539C25.6266 82.2203 26.9805 81.893 28.4266 82.2226C30.2859 82.6476 31.3594 83.8594 31.7563 85.6937C31.8359 86.0641 31.8469 86.4469 31.8899 86.8234ZM29.8539 87.6078L29.8 87.6V87.3766C29.7695 86.2859 29.5563 85.2469 28.9055 84.3406C28.4234 83.668 27.7781 83.2461 26.9508 83.1281C25.6024 82.9359 24.7211 83.7359 24.4289 84.8226C24.0477 86.2422 24.1672 87.6445 24.757 88.9906C25.125 89.8297 25.7063 90.4836 26.5992 90.8008C27.9914 91.2953 29.2524 90.6406 29.6047 89.2117C29.7344 88.6891 29.7734 88.1437 29.8539 87.6078Z" fill="white"/>
<path fill-rule="evenodd" clip-rule="evenodd" d="M64.3453 26.2062C65.3039 28.9773 65.993 31.8062 66.2203 34.7375C66.5015 38.375 66.3734 41.9875 65.6062 45.5648L65.5078 45.8508C65.2672 45.8516 65.0219 45.8211 64.7867 45.8578C62.8 46.1703 60.8156 46.4937 58.8305 46.8156C56.7781 47.1484 54.7242 47.468 52.6758 47.8226C51.95 47.9476 51.0515 47.7984 50.7586 48.8016L50.618 48.8492L50.7172 42.8508L50.6164 28.3773L51.5726 28.2133C53.1359 27.9578 54.6992 27.6976 56.2648 27.4484C58.132 27.1523 60.0008 26.8633 61.8695 26.5742C62.6945 26.4476 63.5203 26.3297 64.3453 26.2062Z" fill="#439934"/>
<path fill-rule="evenodd" clip-rule="evenodd" d="M48.6445 66.3367C47.6359 65.4695 46.5922 64.6406 45.6258 63.7281C40.4242 58.8219 36.6188 53.0461 34.7445 46.0828C34.2281 44.1672 33.8844 42.2195 33.7734 40.2398C33.6953 38.8539 33.5836 37.4562 33.682 36.0773C33.9422 32.4109 34.4727 28.7797 35.5477 25.2476L35.607 25.1656C35.7117 25.3047 35.8617 25.4281 35.9149 25.5851C36.9649 28.6758 38.0063 31.7695 39.043 34.8656C42.3 44.593 45.5531 54.3226 48.8156 64.0484C48.8797 64.2383 49.0445 64.3937 49.1633 64.5648L48.6445 66.3367Z" fill="#45A538"/>
<path fill-rule="evenodd" clip-rule="evenodd" d="M64.3453 26.2062C63.5195 26.3289 62.6937 26.4477 61.8695 26.5742C60.0008 26.8633 58.132 27.1523 56.2648 27.4484C54.7 27.6969 53.1367 27.957 51.5727 28.2133L50.6164 28.3773L50.6086 27.7539C50.5766 27.2414 50.5234 26.7289 50.5164 26.2164L50.4094 16.4086C50.3844 14.3625 50.3469 12.3164 50.3055 10.2711C50.2844 8.99986 50.2477 7.72893 50.1953 6.45859C50.1641 5.77656 50.0539 5.09766 50.0102 4.41563C49.9844 4.02344 50.0188 3.62813 50.0273 3.23438C50.5148 4.17891 50.9922 5.13047 51.493 6.06797C52.2844 7.55 53.5461 8.64219 54.6828 9.83359C59.1719 14.5453 62.3586 20.0203 64.3453 26.2062Z" fill="#46A037"/>
<path fill-rule="evenodd" clip-rule="evenodd" d="M50.6187 48.8492L50.7594 48.8016C51.0523 47.7984 51.9508 47.9477 52.6766 47.8227C54.725 47.468 56.7789 47.1484 58.8312 46.8156C60.8164 46.4945 62.8008 46.1711 64.7875 45.8578C65.0227 45.8211 65.268 45.8516 65.5086 45.8508C65.1375 47.1758 64.8453 48.5297 64.3742 49.818C63.8391 51.2789 63.1922 52.7055 62.5055 54.1039C61.4768 56.1893 60.2041 58.1452 58.7141 59.9305C57.5687 61.307 56.2922 62.5813 55.0133 63.8383C54.3055 64.5328 53.4726 65.0992 52.6961 65.7242L52.4945 65.5867L51.7703 64.968L51.0211 63.3242C50.5092 61.4074 50.2298 59.4359 50.1891 57.4523L50.2031 57.118L50.3055 55.6695C50.3391 55.175 50.3844 54.6813 50.4055 54.1867C50.4805 52.4086 50.5477 50.6289 50.6187 48.8492Z" fill="#409433"/>
<path fill-rule="evenodd" clip-rule="evenodd" d="M50.6187 48.8492C50.5484 50.6289 50.4812 52.4094 50.4055 54.1891C50.3844 54.6844 50.3398 55.1781 50.3055 55.6719L49.8492 55.8445C48.8351 52.8594 47.8203 49.9055 46.8281 46.9445C45.1867 42.0453 43.5656 37.1391 41.9266 32.2383C40.603 28.2831 39.2702 24.331 37.9281 20.382C37.8648 20.1977 37.6852 20.0524 37.5602 19.8891L40.482 14.5164C40.5828 14.6906 40.7148 14.8539 40.7781 15.0414C42.1297 19.0414 43.4789 23.0422 44.8164 27.0469C46.557 32.2578 48.2859 37.4711 50.025 42.6828C50.0945 42.8906 50.2086 43.0828 50.318 43.3164L50.718 42.8508L50.6187 48.8492Z" fill="#4FAA41"/>
<path fill-rule="evenodd" clip-rule="evenodd" d="M37.5594 19.8891C37.6852 20.0523 37.8649 20.1977 37.9274 20.382C39.2695 24.331 40.6023 28.2831 41.9258 32.2383C43.5649 37.1391 45.1859 42.0453 46.8274 46.9445C47.8195 49.9055 48.8344 52.8586 49.8484 55.8445L50.3047 55.6719L50.2024 57.1203L50.1094 57.4539C49.9508 59.0391 49.8172 60.6273 49.6235 62.2094C49.5266 63.0023 49.3195 63.7805 49.1625 64.5648C49.0445 64.3938 48.8789 64.2383 48.8149 64.0485C45.5516 54.3227 42.2992 44.593 39.0422 34.8656C38.0059 31.77 36.9632 28.6765 35.9141 25.5852C35.861 25.4281 35.7109 25.3047 35.6063 25.1656L37.5594 19.8891Z" fill="#4AA73C"/>
<path fill-rule="evenodd" clip-rule="evenodd" d="M50.7172 42.8508L50.3172 43.3164C50.2078 43.0828 50.0938 42.8906 50.0242 42.6828C48.2852 37.4711 46.5563 32.2578 44.8156 27.0469C43.4766 23.0427 42.1305 19.0409 40.7774 15.0414C40.7141 14.8539 40.582 14.6906 40.4813 14.5164L44.0945 9.76328C44.2086 9.91484 44.3711 10.05 44.4297 10.2211C45.4328 13.1586 46.4266 16.0984 47.4156 19.0406C48.3391 21.7891 49.2484 24.5406 50.1828 27.2844C50.2453 27.468 50.4633 27.5977 50.6086 27.7539L50.6164 28.3773L50.7172 42.8508Z" fill="#57AE47"/>
<path fill-rule="evenodd" clip-rule="evenodd" d="M50.6086 27.7539C50.4625 27.5985 50.2453 27.4688 50.1828 27.2844C49.2492 24.5406 48.3391 21.7891 47.4156 19.0406C46.4273 16.0984 45.432 13.1586 44.4297 10.2211C44.3711 10.05 44.2086 9.91486 44.0945 9.76329C45.2695 8.61251 46.4078 7.42033 47.6305 6.32267C48.7172 5.34767 49.5906 4.30236 49.6313 2.76095L49.7172 2.45392L50.0266 3.23361C50.0188 3.62736 49.9836 4.02267 50.0094 4.41486C50.0539 5.09689 50.1641 5.77579 50.1945 6.45782C50.2516 7.72736 50.2789 8.99923 50.3047 10.2703C50.3461 12.3156 50.3836 14.3617 50.4086 16.4078L50.5156 26.2156C50.5235 26.7289 50.5774 27.2414 50.6086 27.7539Z" fill="#60B24F"/>
<path fill-rule="evenodd" clip-rule="evenodd" d="M49.1633 64.5641C49.3203 63.7797 49.5273 63.0016 49.6242 62.2086C49.818 60.6273 49.9515 59.0383 50.1101 57.4531L50.15 57.4469L50.189 57.4539C50.2298 59.4375 50.5092 61.409 51.0211 63.3258C50.9156 63.4648 50.768 63.5875 50.7117 63.7437C50.2781 64.9672 49.8687 66.2008 49.4328 67.4234C49.3734 67.5906 49.2062 67.7211 49.0898 67.8672L48.6437 66.3359L49.1633 64.5641Z" fill="#A9AA88"/>
<path fill-rule="evenodd" clip-rule="evenodd" d="M49.0898 67.868C49.2063 67.7211 49.3734 67.5914 49.4328 67.4242C49.8687 66.2016 50.2781 64.968 50.7117 63.7445C50.7672 63.5883 50.9156 63.4656 51.0211 63.3266L51.7703 64.9703C51.6227 65.1797 51.418 65.3695 51.3359 65.6031L49.9016 69.8156C49.8422 69.9852 49.6414 70.1039 49.5055 70.2469L49.0898 67.868Z" fill="#B6B598"/>
<path fill-rule="evenodd" clip-rule="evenodd" d="M49.5055 70.2461C49.6406 70.1031 49.8422 69.9844 49.9016 69.8149L51.3359 65.6024C51.4172 65.3688 51.6226 65.1789 51.7703 64.9695L52.4953 65.5875C52.1453 65.9336 51.9508 66.3336 52.068 66.8391L51.8476 67.5602C51.7476 67.6836 51.6023 67.7914 51.5531 67.9328C51.0523 69.3672 50.575 70.8094 50.0703 72.243C50.0062 72.4242 49.8289 72.5672 49.7047 72.7281L49.5055 70.2461Z" fill="#C2C1A7"/>
<path fill-rule="evenodd" clip-rule="evenodd" d="M49.7039 72.7274C49.8289 72.5664 50.0063 72.4235 50.0695 72.2422C50.5742 70.8086 51.0523 69.3664 51.5523 67.932C51.6016 67.7906 51.7469 67.6836 51.8469 67.5594L51.543 70.8688C51.4617 70.9625 51.3445 71.0445 51.3055 71.1531L50.2945 74.05C50.2234 74.2477 50.0875 74.4242 49.9813 74.6094C49.8867 74.486 49.718 74.3664 49.7102 74.2383C49.6805 73.7367 49.7016 73.2313 49.7039 72.7274Z" fill="#CECDB7"/>
<path fill-rule="evenodd" clip-rule="evenodd" d="M49.982 74.6102C50.0883 74.425 50.2242 74.2484 50.2953 74.0508L51.3062 71.1539C51.3453 71.0445 51.4633 70.9633 51.5437 70.8695L51.5516 73.0414L50.8242 74.9063L49.982 74.6102Z" fill="#DBDAC7"/>
<path fill-rule="evenodd" clip-rule="evenodd" d="M50.8242 74.9063L51.5516 73.0414L51.7016 75.2477L50.8242 74.9063Z" fill="#EBE9DC"/>
<path fill-rule="evenodd" clip-rule="evenodd" d="M52.0672 66.8391C51.9508 66.3344 52.1445 65.9344 52.4945 65.5875L52.6961 65.725L52.0672 66.8391Z" fill="#CECDB7"/>
<path fill-rule="evenodd" clip-rule="evenodd" d="M50.1891 57.4547L50.15 57.4476L50.1102 57.4539L50.2031 57.1203L50.1891 57.4547Z" fill="#4FAA41"/>
</svg>
