<svg width="100" height="100" viewBox="0 0 100 100" fill="none" xmlns="http://www.w3.org/2000/svg">
<g clip-path="url(#clip0_10_85)">
<path d="M29.748 65.9877L32.7871 80.4539C33.4699 83.7384 33.7547 86.0312 33.6406 87.3381C35.3027 80.8075 36.4641 73.6905 37.1248 65.9877H40.7791C39.2078 78.5281 37.1354 87.641 34.5629 93.3258C32.5586 97.7066 30.3629 99.8969 27.9719 99.8969C27.3344 99.8969 26.5484 99.6143 25.6158 99.0533V96.0304C26.0715 96.1284 26.6061 96.1808 27.2209 96.1808C28.3363 96.1808 29.2354 95.7272 29.9193 94.8221C30.7383 93.7192 31.1482 92.4797 31.1482 91.1057C31.1482 90.1676 30.8285 88.2424 30.192 85.3301L25.9576 65.9877H29.748ZM6.48887 57.0963L12.0553 82.012H12.0896L17.6902 57.0963H22.266C23.268 69.4527 23.8598 80.7585 24.0414 91.0063H20.1836C20.0479 81.4267 19.6719 72.4186 19.057 63.9805H19.0234L13.1488 91.0063H10.2109L4.37188 63.9805H4.3375C3.9043 72.0842 3.63164 81.0923 3.51797 91.0063H0C0.227344 78.949 0.796289 67.6467 1.70684 57.0963H6.48887Z" fill="#00758F"/>
<path d="M68.8473 56.5931C74.835 56.5931 77.8289 62.2052 77.8289 73.4238C77.8289 79.5201 76.9285 84.1249 75.1295 87.2358C74.8053 87.8043 74.4469 88.2954 74.0695 88.7504L78.3068 91.8241L78.3027 91.8238L76.7982 95.6352L71.2801 90.9117C70.3654 91.3092 69.359 91.5077 68.2623 91.5077C65.3223 91.5077 63.1262 90.2507 61.6742 87.7398C60.0805 84.9622 59.284 80.5894 59.284 74.6289C59.284 68.567 60.1828 63.9797 61.9824 60.8648C63.6215 58.0155 65.9102 56.5931 68.8473 56.5931ZM50.5113 56.6421C52.6514 56.6421 54.5973 57.4822 56.35 59.1564L55.4598 62.0668C53.96 61.1315 52.4813 60.6619 51.0231 60.6619C49.8398 60.6619 48.9281 61.0797 48.2926 61.9203C47.6535 62.7536 47.2582 63.8258 47.2582 65.1329C47.2582 67.1415 48.2336 68.8834 50.0346 70.355C50.6246 70.8282 51.2126 71.3068 51.7984 71.7908L51.9328 71.9017L52.0002 71.9573L52.1348 72.0682L52.202 72.1238L52.3363 72.235C53.6996 73.3625 54.9824 74.4387 54.9824 74.4387C56.7832 76.314 57.6809 78.3135 57.6809 81.6066C57.6809 84.4825 56.9625 86.8433 55.5305 88.6905C54.0975 90.5295 52.1723 91.4516 49.7613 91.4516C47.5064 91.4516 45.3211 90.3903 43.2043 88.2854L44.1945 85.3725C46.0162 86.712 47.6647 87.3811 49.1449 87.3811C50.5332 87.3811 51.6199 86.9264 52.4061 86.0284C53.1906 85.1238 53.6607 83.8622 53.6607 82.2625C53.6607 80.249 52.7061 78.5278 50.9547 77.084C50.4065 76.6396 49.86 76.191 49.315 75.7381L49.1809 75.6266C48.9344 75.4223 48.6861 75.2155 48.443 75.0129L48.3111 74.9029C47.1285 73.916 46.1061 73.0539 46.1061 73.0539C44.3553 71.1751 43.4773 69.1593 43.4773 65.8378C43.4773 63.0908 44.132 60.8705 45.4395 59.1814C46.75 57.4885 48.4408 56.6421 50.5113 56.6421ZM84.8658 57.096V86.8347H92.1389V91.006H81.1772V57.0963L84.8658 57.096ZM96.1803 86.8476V87.5524H95.3807V91.0023H94.7693V87.5524H93.9387V86.8476H96.1803ZM97.6568 86.8476L98.4246 89.6796L99.1299 86.8476H99.9965V91.0023H99.4203V87.8404L98.6176 91.0023H98.2022L97.3981 87.8404H97.3672V91.0023H96.8221V86.8476H97.6568ZM68.4707 60.7633C64.9422 60.7633 63.177 65.0355 63.177 73.5742C63.177 78.4653 63.6447 82.012 64.5785 84.2226C65.4434 86.2685 66.7979 87.2894 68.6422 87.2894C72.1707 87.2894 73.9357 82.9839 73.9357 74.3771C73.9357 69.5544 73.468 66.0381 72.5354 63.8264C71.6695 61.7851 70.3156 60.7633 68.4709 60.7633" fill="#F29111"/>
<path d="M59.2223 2.1011C60.3928 -2.11838 64.4855 1.07704 66.0738 2.55096C66.4631 2.91973 66.9096 3.69881 67.3559 3.98678C68.0521 4.02689 68.7478 4.10684 69.4453 4.14953C70.7535 4.60053 71.9789 4.96901 73.0098 5.83033C77.8004 9.9693 80.9189 14.1871 83.7891 21.1538C84.4023 22.6295 84.7088 24.2263 85.2098 25.8232C85.9051 28.2034 86.6863 30.702 87.4934 32.9527C87.8547 34.0197 88.1342 35.2063 88.6359 36.1074C88.8318 36.5194 89.3883 36.6409 89.7209 36.8871C90.6404 37.5853 91.7545 38.1154 92.6193 38.9349C94.2344 40.4123 95.7959 42.1727 97.2154 43.975C97.7445 44.6707 98.1051 45.6556 98.6092 46.3914V46.7627C98.1617 46.9641 97.7158 47.1704 97.2695 47.3358C96.2947 47.7031 95.4312 47.62 94.4855 47.9876C93.9012 48.2364 93.1756 48.5644 92.5627 48.6478L92.6193 48.7315C92.9799 50.2429 94.9307 51.4722 95.8228 52.3762C96.9064 53.5235 97.9105 54.9149 98.7187 56.5129C98.9978 56.9206 99.277 57.2917 99.5547 57.6982C99.7488 58.1103 99.8035 58.6432 100 59.0106V59.1349C99.7824 59.0223 99.626 58.8074 99.4777 58.5828L99.3893 58.4472C99.3008 58.3126 99.2115 58.1802 99.1098 58.071C98.4949 57.455 97.8844 56.718 97.2695 56.1452C96.2125 55.1613 94.9865 54.5902 93.9012 53.6025C93.2875 53.0292 92.7025 52.3762 92.1176 51.72C91.5873 51.145 91.0033 50.0406 90.6701 49.2212C90.4738 48.7684 90.4469 48.2364 90.2227 47.9088C90.2627 47.3619 90.6043 47.1994 90.949 47.0659L91.0283 47.0352C91.1473 46.9899 91.2637 46.9447 91.3652 46.8848C92.8133 45.9828 94.5396 45.6555 96.7689 45.7375C96.685 44.9163 95.292 43.8931 94.8473 43.4014C93.9547 42.4576 93.0096 41.4727 92.0627 40.6137C91.5609 40.1639 90.6963 39.8355 90.1404 39.4679C89.3883 39.0169 87.7166 38.5662 87.2998 37.7071C86.5918 36.353 86.0832 34.7378 85.5894 33.1063L85.4551 32.661C85.4103 32.5126 85.3653 32.3643 85.3203 32.216C84.7367 30.2512 84.0117 28.2028 83.4268 26.1911C83.1209 25.2097 82.9805 24.3484 82.6455 23.4071C80.6129 17.6312 77.6045 12.7954 73.957 9.39452C72.7584 8.28792 71.4219 7.26386 69.9465 6.56787C69.1103 6.19738 68.1068 6.40225 67.216 6.11801H66.6297C66.1293 5.91113 65.7115 5.13291 65.3211 4.7226C64.4588 3.86357 63.5951 3.28678 62.5639 2.67388C62.2025 2.42804 61.1707 1.85555 60.8105 2.30626C60.5875 2.3885 60.4744 2.51199 60.4195 2.84036C60.1977 3.33033 60.3928 4.06844 60.5309 4.5203C60.9492 5.82976 61.5336 6.60798 62.0641 7.71457C62.5359 8.69595 63.1221 9.80254 63.4566 10.8696C64.1785 13.1633 64.5146 15.7045 65.1836 17.998C65.4316 18.8604 65.824 19.8418 66.1852 20.6197C66.4912 21.2372 67.0477 21.6836 67.216 22.4653C67.5516 23.2848 66.7137 25.9888 66.5197 26.8475C65.7941 30.2077 65.9348 34.8785 66.7703 37.7911L66.8148 37.9447L66.8594 38.1003C67.1645 39.167 67.491 40.3157 68.3021 40.614C68.358 40.5326 68.3021 40.5753 68.4129 40.5326C68.6092 38.2782 68.6644 36.1071 69.1941 34.3432C69.5002 33.2404 70.1113 32.4607 70.5303 31.5604C70.8096 31.8057 70.8096 32.5452 70.976 33.0346C71.3385 34.304 71.7277 35.6957 72.1746 36.9687C73.0918 39.5905 74.1238 42.1323 75.2932 44.4258C75.6848 45.2449 76.2404 46.1467 76.7416 46.8845C76.9648 47.1702 77.2148 47.3352 77.3826 47.7028H77.4373V47.8266C76.6018 47.3747 76.0721 46.1066 75.4057 45.3662C74.151 43.9745 72.6484 41.8845 71.7836 39.879C71.4219 38.7278 71.0309 37.6243 70.641 36.4788V36.396C70.4744 36.7232 70.5303 37.0481 70.4469 37.5432C70.0852 39.5905 70.3637 41.926 69.1103 42.6624C67.6896 43.5249 66.6299 41.2707 66.1852 40.2464C64.7641 36.8464 64.3748 31.1106 65.377 26.4805C65.5996 25.4555 65.6299 24.2263 66.0186 23.408C65.9346 22.6682 65.5459 22.4659 65.3211 22.0126C64.9312 21.2378 64.5975 20.3352 64.2922 19.4747C63.7059 17.7939 63.2887 15.7856 62.8436 13.9831C62.6478 13.247 62.5918 12.508 62.3967 11.8111C62.0639 10.7475 61.4504 9.68048 60.9771 8.7395C60.3363 7.38706 58.4699 4.76586 59.2223 2.1011ZM68.3574 10.1283C68.4318 10.2378 68.5217 10.3335 68.6146 10.4278L68.7268 10.5406C68.8762 10.6925 69.0209 10.8524 69.1096 11.0702C69.2502 11.3584 69.2764 11.6429 69.4447 11.9318C69.4447 12.9166 69.2502 13.5713 68.8574 13.9793C68.8574 13.9793 68.8307 14.0223 68.8031 14.0624C68.5805 13.406 68.3853 12.753 68.1611 12.0971C67.885 11.5246 67.4945 11.0704 67.2695 10.4163H67.2154V10.3341C67.5516 10.2123 67.885 10.1283 68.3574 10.1283Z" fill="#00758F"/>
</g>
<defs>
<clipPath id="clip0_10_85">
<rect width="100" height="100" fill="white"/>
</clipPath>
</defs>
</svg>
