<svg width="100" height="100" viewBox="0 0 100 100" fill="none" xmlns="http://www.w3.org/2000/svg">
<path d="M91.8438 43.6875L56.3125 8.15625L55 6.84375L53.5312 6.25H46.4688L45 6.875L43.6875 8.15625L8.15625 43.6875L6.84375 45L6.25 46.4688V53.5312L6.875 55L8.15625 56.3125L43.6875 91.8438L45 93.1562L46.4688 93.75H53.5312L55 93.125L56.3125 91.8438L91.8438 56.3125L93.1562 55L93.75 53.5312V46.4688L93.125 45L91.8438 43.6875Z" fill="#014847"/>
<path d="M46.8438 85.5625V68.5L47.2812 68.0312H52.7188L53.1562 68.5V85.5625L52.7188 86H47.2812L46.8438 85.5625ZM46.8438 31.5V14.4375L47.2812 14H52.7188L53.1562 14.4375V31.5L52.7188 31.9687H47.2812L46.8438 31.5ZM32.5 72.9062H31.75L28 69.1562V68.4375L33 63.4375H36.9375L37.4688 64V67.9375L32.4688 72.9375L32.5 72.9062ZM28 31.75V31L31.75 27.25H32.5L37.4688 32.25V36.1875L36.9375 36.7187H33L28 31.75ZM13 46.8125H32.1875L32.625 47.2812V52.7188L32.1875 53.1562H13L12.5 52.7188V47.2812L12.9688 46.8125H13Z" fill="#32E6E2"/>
<path d="M60.1875 61.3125H54.75L54.2813 60.8437V48.1562C54.2813 45.875 53.4062 44.125 50.6875 44.0937C49.2812 44.0312 47.6562 44.0937 45.9687 44.1562L45.6875 44.4062V60.8437L45.25 61.3125H39.8125L39.375 60.8437V39.1562L39.8125 38.6875H52C53.1312 38.6834 54.252 38.9026 55.2983 39.3327C56.3445 39.7627 57.2956 40.3951 58.0969 41.1935C58.8982 41.9919 59.534 42.9406 59.9679 43.9853C60.4017 45.03 60.625 46.1501 60.625 47.2812V60.8437L60.1562 61.3125H60.1875Z" fill="white"/>
<path d="M87 53.1875H67.8125L67.375 52.7188V47.2813L67.8125 46.8438H87L87.4688 47.2813V52.7188L87 53.1875Z" fill="#32E6E2"/>
</svg>
