<svg width="100" height="100" viewBox="0 0 100 100" fill="none" xmlns="http://www.w3.org/2000/svg">
<rect width="100" height="100" rx="20" fill="white"/>
<path d="M69.6875 18.75C69.4389 18.75 69.2004 18.8488 69.0246 19.0246C68.8488 19.2004 68.75 19.4389 68.75 19.6875V36.8656L64.8563 34.5937C64.6159 34.4516 64.3418 34.3766 64.0625 34.3766C63.7832 34.3766 63.5091 34.4516 63.2687 34.5937L53.9125 40.05C53.6733 40.1881 53.4746 40.3867 53.3364 40.6258C53.1982 40.865 53.1253 41.1363 53.125 41.4125V52.3375C53.125 52.9 53.425 53.4188 53.9125 53.7L63.2687 59.1562C63.5091 59.2984 63.7832 59.3734 64.0625 59.3734C64.3418 59.3734 64.6159 59.2984 64.8563 59.1562L74.2125 53.7C74.4517 53.5619 74.6504 53.3633 74.7886 53.1242C74.9268 52.885 74.9997 52.6137 75 52.3375V22.5938C74.9992 22.3212 74.9273 22.0536 74.7914 21.8174C74.6555 21.5812 74.4602 21.3845 74.225 21.2469L70.1531 18.8781C70.013 18.7953 69.8534 18.7511 69.6906 18.75H69.6875ZM39.0625 34.3812C38.7838 34.3809 38.51 34.4542 38.2687 34.5937L28.9125 40.05C28.6733 40.1881 28.4746 40.3867 28.3364 40.6258C28.1982 40.865 28.1253 41.1363 28.125 41.4125V52.3375C28.125 52.9 28.425 53.4188 28.9125 53.7L38.2687 59.1562C38.7594 59.4375 39.3625 59.4375 39.8563 59.1562L49.2125 53.7C49.4517 53.5619 49.6504 53.3633 49.7886 53.1242C49.9268 52.885 49.9997 52.6137 50 52.3375V41.4125C50.0004 41.1362 49.9277 40.8646 49.7895 40.6254C49.6512 40.3861 49.4521 40.1876 49.2125 40.05L39.8563 34.5937C39.615 34.4542 39.3412 34.3809 39.0625 34.3812ZM89.0625 34.3812C88.7837 34.3798 88.5096 34.4532 88.2688 34.5937L78.9125 40.05C78.6733 40.1881 78.4746 40.3867 78.3364 40.6258C78.1982 40.865 78.1253 41.1363 78.125 41.4125V52.3375C78.125 52.9 78.425 53.4188 78.9125 53.7L87.9875 59.1844C88.2274 59.3299 88.5021 59.4079 88.7827 59.4101C89.0632 59.4123 89.3391 59.3386 89.5813 59.1969L94.0437 56.6031C94.1487 56.5413 94.2357 56.4531 94.2962 56.3473C94.3566 56.2416 94.3885 56.1218 94.3885 56C94.3885 55.8782 94.3566 55.7584 94.2962 55.6527C94.2357 55.5469 94.1487 55.4587 94.0437 55.3969L84.375 49.7V44.0937L89.0625 41.3656L93.75 44.0937V48C93.75 48.5219 94.1875 48.6031 94.4812 48.4281C96.061 47.5058 97.6423 46.586 99.225 45.6688C99.4604 45.5314 99.6559 45.3348 99.7918 45.0985C99.9278 44.8622 99.9995 44.5945 100 44.3219V41.4156C100 41.1393 99.9277 40.8677 99.7895 40.6285C99.6512 40.3892 99.4521 40.1907 99.2125 40.0531L89.8562 34.5969C89.6152 34.4568 89.3413 34.3834 89.0625 34.3844V34.3812ZM14.0625 34.3875C13.7837 34.3861 13.5096 34.4595 13.2688 34.6L3.9125 40.05C3.67301 40.1894 3.47426 40.3891 3.33607 40.6293C3.19789 40.8694 3.12511 41.1417 3.125 41.4187V55.3656C3.125 56.0469 3.8625 56.4688 4.45 56.1281L8.6 53.7125C8.83569 53.5746 9.03122 53.3775 9.16717 53.1406C9.30312 52.9038 9.37477 52.6356 9.375 52.3625V44.1031L14.0625 41.3687L18.75 44.1031V52.3625C18.7505 52.6351 18.8222 52.9028 18.9582 53.1391C19.0941 53.3754 19.2896 53.572 19.525 53.7094L23.675 56.1281C23.809 56.2062 23.9612 56.2476 24.1163 56.248C24.2714 56.2484 24.4239 56.2079 24.5583 56.1306C24.6927 56.0532 24.8044 55.9417 24.8819 55.8074C24.9595 55.6731 25.0002 55.5207 25 55.3656V41.4187C24.9999 41.1417 24.9271 40.8694 24.7889 40.6293C24.6507 40.3891 24.452 40.1894 24.2125 40.05L14.8562 34.6C14.6154 34.4595 14.3413 34.3861 14.0625 34.3875ZM64.0625 41.3625L68.75 44.0969V49.6531L64.0625 52.3875L59.375 49.6531V44.0937L64.0625 41.3594V41.3625ZM89.0625 43.7625L86.3844 45.325V48.4438L89.0625 50L91.7406 48.4438V45.325L89.0625 43.7625ZM51.2687 56.2437C50.9441 56.2419 50.6245 56.3237 50.3406 56.4812L41.5531 61.5625C41.2703 61.7228 41.0353 61.9555 40.8722 62.2367C40.7091 62.5179 40.6238 62.8374 40.625 63.1625V73.3063C40.625 73.9594 40.9906 74.575 41.5531 74.9062L43.8656 76.225C44.975 76.7719 45.3844 76.7719 45.8875 76.7719C47.5438 76.7719 48.4875 75.7812 48.4875 74.0312V64.0094C48.4883 63.9752 48.4823 63.9412 48.4698 63.9094C48.4573 63.8776 48.4386 63.8486 48.4147 63.8241C48.3908 63.7997 48.3623 63.7802 48.3308 63.767C48.2993 63.7537 48.2654 63.7469 48.2313 63.7469H47.1188C47.0491 63.7469 46.9824 63.7745 46.9331 63.8238C46.8839 63.873 46.8563 63.9398 46.8563 64.0094V74.0312C46.8563 74.7906 46.0531 75.5719 44.7437 74.9188L42.3375 73.5313C42.2982 73.5065 42.2657 73.4725 42.2428 73.4321C42.2199 73.3918 42.2074 73.3464 42.2062 73.3V63.1562C42.2062 63.0656 42.25 62.9594 42.3406 62.9125L51.1281 57.8469C51.1702 57.8236 51.2175 57.8114 51.2656 57.8114C51.3137 57.8114 51.361 57.8236 51.4031 57.8469L60.2 62.9094C60.2906 62.9594 60.3344 63.05 60.3344 63.1562V73.3C60.3342 73.3486 60.3217 73.3964 60.2983 73.439C60.2748 73.4816 60.241 73.5176 60.2 73.5438L51.4031 78.6281C51.361 78.6514 51.3137 78.6636 51.2656 78.6636C51.2175 78.6636 51.1702 78.6514 51.1281 78.6281L48.8844 77.2906C48.8219 77.2594 48.7281 77.2438 48.6688 77.275C48.2575 77.5386 47.8116 77.7437 47.3438 77.8844C47.1906 77.9313 46.9844 78.025 47.425 78.2687L50.3406 80.0031C50.6257 80.1583 50.9442 80.2419 51.2687 80.2469C51.5921 80.2501 51.9097 80.1612 52.1844 79.9906L60.975 74.9062C61.2578 74.7459 61.4928 74.5132 61.6559 74.232C61.819 73.9509 61.9044 73.6313 61.9031 73.3063V63.1625C61.899 62.8385 61.8115 62.5211 61.6489 62.2408C61.4863 61.9605 61.2542 61.7269 60.975 61.5625L52.1844 56.4844C51.9053 56.3261 51.5895 56.2442 51.2687 56.2469V56.2437ZM64.9781 60.925C64.7565 60.9254 64.5372 60.9695 64.3326 61.0546C64.128 61.1398 63.9422 61.2645 63.7858 61.4215C63.6294 61.5785 63.5054 61.7647 63.421 61.9696C63.3366 62.1745 63.2933 62.394 63.2938 62.6156C63.2942 62.8372 63.3382 63.0566 63.4234 63.2612C63.5086 63.4657 63.6332 63.6515 63.7902 63.808C63.9472 63.9644 64.1335 64.0883 64.3384 64.1727C64.5433 64.2572 64.7628 64.3004 64.9844 64.3C65.4319 64.2992 65.8608 64.1206 66.1767 63.8035C66.4926 63.4865 66.6696 63.0569 66.6687 62.6094C66.6679 62.1618 66.4893 61.7329 66.1723 61.417C65.8552 61.1012 65.4257 60.9242 64.9781 60.925ZM64.9594 61.1938C65.7531 61.1938 66.3969 61.8187 66.3969 62.6094C66.3912 62.9889 66.238 63.3512 65.9696 63.6196C65.7012 63.888 65.3389 64.0412 64.9594 64.0469C64.582 64.0428 64.2216 63.8891 63.9574 63.6196C63.6932 63.3501 63.5467 62.9868 63.55 62.6094C63.5488 62.4237 63.5843 62.2395 63.6546 62.0676C63.7249 61.8957 63.8286 61.7394 63.9597 61.6078C64.0907 61.4762 64.2465 61.3719 64.4181 61.3008C64.5897 61.2297 64.7737 61.1933 64.9594 61.1938ZM64.3438 61.6531V63.55H64.7031V62.7938H65.0406C65.1781 62.7938 65.2094 62.85 65.2406 62.9562C65.2406 62.9719 65.2969 63.4656 65.3125 63.5562H65.7031C65.6535 63.3915 65.6231 63.2217 65.6125 63.05C65.5688 62.8063 65.5563 62.6375 65.2969 62.6219C65.4344 62.575 65.6625 62.5031 65.6625 62.1531C65.6625 61.65 65.225 61.6531 64.9969 61.6531H64.3438ZM64.7031 61.9562H65.0094C65.1031 61.9562 65.2844 61.9563 65.2844 62.2125C65.2844 62.3188 65.2375 62.4938 64.9906 62.4875H64.7031V61.9562ZM53.625 63.5063C51.1156 63.5063 49.625 64.5781 49.625 66.3406C49.625 68.2719 51.1188 68.7875 53.5219 69.0281C56.3969 69.3188 56.6219 69.7312 56.6219 70.2937C56.6219 71.2812 55.8281 71.6906 53.9719 71.6906C51.6437 71.6906 51.1344 71.1156 50.9656 69.9594C50.95 69.8344 50.8406 69.7438 50.7031 69.7438H49.5594C49.5252 69.7437 49.4914 69.7506 49.4598 69.7638C49.4283 69.7771 49.3998 69.7965 49.3759 69.821C49.3521 69.8455 49.3333 69.8745 49.3208 69.9063C49.3083 69.9381 49.3023 69.9721 49.3031 70.0063C49.3031 71.4813 50.1094 73.2469 53.9563 73.2469C56.7781 73.2469 58.375 72.1531 58.375 70.2344C58.375 68.3344 57.0937 67.8281 54.3875 67.4625C51.65 67.0969 51.3781 66.9125 51.3781 66.2719C51.3781 65.7406 51.6031 65.0437 53.6281 65.0437C55.4344 65.0437 56.1094 65.4406 56.3844 66.6562C56.4156 66.7812 56.5 66.8531 56.6219 66.8531H57.7625C57.8375 66.8531 57.9031 66.8219 57.9469 66.7781C57.9937 66.7188 58.0219 66.6594 58.0094 66.5844C57.8281 64.4844 56.4406 63.5063 53.625 63.5063Z" fill="black"/>
</svg>
