<svg width="100" height="100" viewBox="0 0 100 100" fill="none" xmlns="http://www.w3.org/2000/svg">
<g clip-path="url(#clip0_10_51)">
<path d="M49.5766 0.0282288C24.2516 0.0282288 25.8328 11.0537 25.8328 11.0537L25.8609 22.4765H50.0281V25.9059H16.2621C16.2621 25.9059 0.0566406 24.0608 0.0566406 49.7137C0.0566406 75.3674 14.2012 74.4576 14.2012 74.4576H22.6426V62.5533C22.6426 62.5533 22.1875 48.3533 36.5613 48.3533H60.5309C60.5309 48.3533 73.9977 48.5718 73.9977 35.2871V13.3216C73.9977 13.3216 76.043 0.0282288 49.5766 0.0282288ZM36.2508 7.7098C36.8219 7.70928 37.3875 7.82183 37.9152 8.04099C38.4429 8.26015 38.9224 8.58164 39.3262 8.98704C39.73 9.39244 40.0502 9.87381 40.2685 10.4036C40.4869 10.9334 40.599 11.5012 40.5984 12.0745C40.599 12.6478 40.4869 13.2156 40.2685 13.7454C40.0502 14.2752 39.73 14.7566 39.3262 15.162C38.9224 15.5674 38.4429 15.8889 37.9152 16.108C37.3875 16.3272 36.8219 16.4397 36.2508 16.4392C35.6797 16.4397 35.1141 16.3272 34.5864 16.108C34.0587 15.8889 33.5792 15.5674 33.1754 15.162C32.7716 14.7566 32.4513 14.2752 32.233 13.7454C32.0147 13.2156 31.9026 12.6478 31.9031 12.0745C31.9026 11.5012 32.0147 10.9334 32.233 10.4036C32.4513 9.87381 32.7716 9.39244 33.1754 8.98704C33.5792 8.58164 34.0587 8.26015 34.5864 8.04099C35.1141 7.82183 35.6797 7.70928 36.2508 7.7098Z" fill="url(#paint0_linear_10_51)"/>
<path d="M50.2957 99.6572C75.6207 99.6572 74.0395 88.6318 74.0395 88.6318L74.0113 77.2094H49.8438V73.78H83.6098C83.6098 73.78 99.8152 75.6251 99.8152 49.9714C99.8152 24.318 85.6707 25.2278 85.6707 25.2278H77.2293V37.1318C77.2293 37.1318 77.6844 51.3318 63.3105 51.3318H39.341C39.341 51.3318 25.8742 51.1133 25.8742 64.3984V86.3643C25.8742 86.3643 23.8293 99.6572 50.2953 99.6572M63.6211 91.9765C63.05 91.977 62.4844 91.8644 61.9567 91.6453C61.429 91.4261 60.9495 91.1046 60.5457 90.6992C60.1419 90.2938 59.8216 89.8125 59.6033 89.2827C59.385 88.7529 59.2729 88.1851 59.2734 87.6118C59.2729 87.0384 59.3849 86.4706 59.6032 85.9407C59.8215 85.4109 60.1417 84.9295 60.5456 84.524C60.9494 84.1186 61.4289 83.7971 61.9566 83.5779C62.4844 83.3587 63.05 83.2461 63.6211 83.2467C64.1922 83.2461 64.7578 83.3587 65.2855 83.5779C65.8132 83.797 66.2927 84.1185 66.6965 84.5239C67.1003 84.9293 67.4205 85.4107 67.6389 85.9405C67.8572 86.4702 67.9693 87.038 67.9688 87.6114C67.9693 88.1847 67.8572 88.7525 67.6389 89.2823C67.4205 89.8121 67.1003 90.2934 66.6965 90.6988C66.2927 91.1042 65.8132 91.4257 65.2855 91.6449C64.7578 91.864 64.1922 91.977 63.6211 91.9765Z" fill="url(#paint1_linear_10_51)"/>
</g>
<defs>
<linearGradient id="paint0_linear_10_51" x1="958.733" y1="896.132" x2="5921.62" y2="5790.32" gradientUnits="userSpaceOnUse">
<stop stop-color="#387EB8"/>
<stop offset="1" stop-color="#366994"/>
</linearGradient>
<linearGradient id="paint1_linear_10_51" x1="1440.88" y1="1556.99" x2="6769.49" y2="6574.62" gradientUnits="userSpaceOnUse">
<stop stop-color="#FFE052"/>
<stop offset="1" stop-color="#FFC331"/>
</linearGradient>
<clipPath id="clip0_10_51">
<rect width="100" height="100" fill="white"/>
</clipPath>
</defs>
</svg>
